<svg width="60" height="60" viewBox="0 0 60 60" fill="none" xmlns="http://www.w3.org/2000/svg">
<path fill-rule="evenodd" clip-rule="evenodd" d="M35 51.25V10.625C35 8.80422 34.996 7.62727 34.8795 6.76008C34.77 5.9468 34.5935 5.6919 34.4508 5.54918C34.308 5.40645 34.0532 5.22992 33.24 5.12057C32.3727 5.00397 31.1957 5 29.375 5C27.5543 5 26.3773 5.00397 25.51 5.12057C24.6968 5.22992 24.4419 5.40645 24.2992 5.54918C24.1565 5.6919 23.9799 5.9468 23.8706 6.76008C23.754 7.62727 23.75 8.80422 23.75 10.625V51.25H35Z" fill="#A77EFA"/>
<path opacity="0.7" d="M20 21.875C20 20.8395 19.1605 20 18.125 20H10.625C9.58948 20 8.75 20.8395 8.75 21.875V51.25H20V21.875Z" fill="#A77EFA"/>
<path opacity="0.7" d="M50 34.375C50 33.3395 49.1605 32.5 48.125 32.5H40.625C39.5895 32.5 38.75 33.3395 38.75 34.375V51.25H50V34.375Z" fill="#A77EFA"/>
<path opacity="0.5" d="M4.375 51.25C3.33948 51.25 2.5 52.0895 2.5 53.125C2.5 54.1605 3.33948 55 4.375 55H54.375C55.4105 55 56.25 54.1605 56.25 53.125C56.25 52.0895 55.4105 51.25 54.375 51.25H53.75H50H38.75H35H23.75H20H8.75H5H4.375Z" fill="#A77EFA"/>
</svg>
