<svg width="60" height="60" viewBox="0 0 60 60" fill="none" xmlns="http://www.w3.org/2000/svg">
<path opacity="0.4" d="M38.7 7.5H18.8C10.175 7.5 5 12.65 5 21.3V41.175C5 49.85 10.175 55 18.8 55H38.675C47.325 55 52.475 49.85 52.475 41.2V21.3C52.5 12.65 47.325 7.5 38.7 7.5Z" fill="#FFC300"/>
<path d="M52.5487 7.44947C48.0737 2.94947 43.6987 2.84947 39.0987 7.44947L36.2737 10.2495C36.0237 10.4995 35.9487 10.8495 36.0487 11.1745C37.7987 17.2995 42.6987 22.1995 48.8237 23.9495C48.8987 23.9745 49.0237 23.9745 49.0987 23.9745C49.3487 23.9745 49.5987 23.8745 49.7737 23.6995L52.5487 20.8995C54.8237 18.6245 55.9487 16.4495 55.9487 14.2245C55.9487 11.9745 54.8237 9.74947 52.5487 7.44947Z" fill="#FFC300"/>
<path d="M44.6478 26.0495C43.9728 25.7245 43.3228 25.3995 42.7228 25.0245C42.2228 24.7246 41.7228 24.3996 41.2478 24.0496C40.8478 23.7996 40.3978 23.4246 39.9478 23.0496C39.8978 23.0246 39.7478 22.8996 39.5478 22.6996C38.7728 22.0746 37.9478 21.2246 37.1728 20.2996C37.1228 20.2496 36.9728 20.0996 36.8478 19.8746C36.5978 19.5996 36.2228 19.1246 35.8978 18.5996C35.6228 18.2496 35.2978 17.7496 34.9978 17.2246C34.6228 16.5996 34.2978 15.9746 33.9978 15.3246C33.6728 14.6246 33.4228 13.9746 33.1978 13.3496L19.7478 26.7995C18.8728 27.6745 18.0228 29.3245 17.8478 30.5495L16.7728 37.9995C16.5478 39.5745 16.9728 41.0495 17.9478 42.0245C18.7728 42.8495 19.8978 43.2745 21.1478 43.2745C21.4228 43.2745 21.6978 43.2495 21.9728 43.2245L29.3978 42.1745C30.6228 41.9995 32.2728 41.1745 33.1478 40.2745L46.5978 26.8245C45.9728 26.6245 45.3478 26.3495 44.6478 26.0495Z" fill="#FFC300"/>
</svg>
