<svg width="60" height="60" viewBox="0 0 60 60" fill="none" xmlns="http://www.w3.org/2000/svg">
<path d="M6.88645 36.79L8.18055 41.6198C9.69117 47.2573 10.4465 50.0763 12.1588 51.9045C13.5108 53.348 15.2605 54.3583 17.1866 54.8073C19.6261 55.376 22.4449 54.6208 28.0827 53.11C33.7202 51.5995 36.5392 50.8443 38.3675 49.132C38.5192 48.9898 38.666 48.8433 38.8082 48.6925C37.9727 48.6225 37.13 48.488 36.2735 48.3178C34.5332 47.9718 32.4655 47.4175 30.02 46.7623L29.753 46.6908L29.691 46.6743C27.0302 45.9613 24.807 45.3643 23.0319 44.723C21.1652 44.0488 19.469 43.2175 18.0287 41.8685C16.0438 40.0095 14.6548 37.6035 14.0373 34.955C13.5892 33.0333 13.7173 31.1485 14.0666 29.1948C14.4014 27.3225 15.0027 25.0788 15.7231 22.3903L17.0591 17.4044L17.1061 17.229C12.3047 18.5224 9.77752 19.2876 8.09217 20.8662C6.64862 22.2182 5.63842 23.9679 5.18932 25.894C4.62052 28.3335 5.37582 31.1523 6.88645 36.79Z" fill="#00D491"/>
<path fill-rule="evenodd" clip-rule="evenodd" d="M52.0732 26.7885L50.779 31.6182C49.2685 37.256 48.513 40.0747 46.8007 41.903C45.4487 43.3465 43.699 44.3567 41.773 44.8057C41.5322 44.862 41.288 44.9052 41.0375 44.936C38.7498 45.2182 35.9585 44.4702 30.877 43.1087C25.2392 41.598 22.4204 40.8427 20.5922 39.1305C19.1486 37.7785 18.1384 36.0287 17.6893 34.1025C17.1205 31.663 17.8758 28.8442 19.3864 23.2066L20.6805 18.3769C20.8977 17.5663 21.0995 16.8135 21.2905 16.114C22.4282 11.9489 23.1927 9.65745 24.6588 8.09217C26.0107 6.64862 27.7605 5.63842 29.6867 5.18932C32.126 4.62052 34.945 5.37582 40.5828 6.88645C46.2202 8.39707 49.0392 9.15237 50.8675 10.8647C52.311 12.2167 53.3212 13.9664 53.7702 15.8926C54.339 18.332 53.5837 21.1508 52.0732 26.7885ZM27.631 24.5147C27.899 23.5145 28.9272 22.9209 29.9275 23.1889L42.0015 26.4242C43.0017 26.6922 43.5952 27.7202 43.3272 28.7205C43.0592 29.7207 42.0312 30.3142 41.031 30.0462L28.9567 26.811C27.9565 26.543 27.363 25.515 27.631 24.5147ZM25.689 31.7582C25.957 30.758 26.985 30.1645 27.9852 30.4325L35.2297 32.3737C36.23 32.6417 36.8235 33.6697 36.5555 34.67C36.2875 35.6702 35.2595 36.264 34.2592 35.996L27.0147 34.0547C26.0145 33.7867 25.4207 32.7585 25.689 31.7582Z" fill="#00D491"/>
</svg>
