<svg width="80" height="80" viewBox="0 0 80 80" fill="none" xmlns="http://www.w3.org/2000/svg">
<path d="M16 58V44.66L32.0337 53.8652C36.967 56.6972 43.0332 56.6972 47.9664 53.8652L64 44.66V58C64 58.5304 63.7892 59.0392 63.4144 59.4144L63.408 59.4204L63.3984 59.4296L63.3712 59.4568L63.2804 59.5436C63.204 59.6156 63.0964 59.7152 62.9576 59.8384C62.6804 60.0852 62.2784 60.4268 61.7556 60.8316C60.7108 61.64 59.1792 62.7044 57.1912 63.7648C53.2132 65.8864 47.3916 68 40 68C32.6084 68 26.787 65.8864 22.8088 63.7648C20.8207 62.7044 19.289 61.64 18.2444 60.8316C17.7217 60.4268 17.3198 60.0852 17.0424 59.8384C16.9036 59.7152 16.7959 59.6156 16.7197 59.5436L16.629 59.4568C16.2375 59.0736 16 58.5512 16 58Z" fill="#A77EFA"/>
<path d="M74.9956 33.7348L45.9748 50.396C42.2748 52.5204 37.7252 52.5204 34.0253 50.396L8 35.4547V54C8 55.1044 7.10456 56 6 56C4.89544 56 4 55.1044 4 54V32.0003C4 31.2403 4.42392 30.579 5.04824 30.2406L34.0252 13.6042C35.4127 12.8076 36.9197 12.3097 38.4565 12.1106C38.9434 12.0475 39.4334 12.0144 39.9234 12.0112C41.4956 12.0012 43.0696 12.2998 44.5508 12.9072C45.0364 13.1063 45.5124 13.3386 45.9748 13.6042L74.996 30.2658C75.6168 30.6224 76 31.284 76 32.0003C76 32.7166 75.6168 33.3782 74.9956 33.7348Z" fill="#A77EFA"/>
</svg>
